<svg
    xmlns="http://www.w3.org/2000/svg"
    viewBox="0 0 134 135"
    id="vector">
    <path
        id="path"
        d="M 68.344 115.082 L 74.167 73.253 C 74.634 72.104 74.812 70.858 74.684 69.624 C 74.557 68.391 74.127 67.207 73.434 66.179 C 72.741 65.15 71.806 64.308 70.711 63.727 C 69.615 63.145 68.394 62.842 67.154 62.844 C 65.913 62.846 64.693 63.153 63.599 63.738 C 62.506 64.323 61.573 65.168 60.883 66.199 C 60.193 67.229 59.768 68.414 59.644 69.648 C 59.52 70.882 59.702 72.127 60.173 73.274 L 65.474 115.087 C 65.689 116.794 68.108 116.788 68.344 115.082 Z"
        fill="#f5f5f5"
        fill-rule="evenodd"/>
</svg>
