<svg width="35" height="48" viewBox="0 0 35 48" fill="none" xmlns="http://www.w3.org/2000/svg">
<path d="M32.7134 44.3448H30.6782C30.7013 42.4056 30.6782 38.9712 30.6782 36.2774C30.6782 32.8195 28.4784 30.949 24.3782 27.553C23.1835 26.5637 21.779 25.4002 20.1893 24C21.779 22.5998 23.183 21.4363 24.3782 20.447C28.4784 17.051 30.7373 15.1805 30.7373 11.7226C30.7373 9.02928 30.7603 5.5944 30.7373 3.65568H32.7134C33.6835 3.65568 34.4698 2.79792 34.4698 1.82784C34.4698 0.85776 33.6835 0 32.7134 0H1.75632C0.78624 0 0 0.85776 0 1.82784C0 2.79792 0.78624 3.65568 1.75632 3.65568H3.73248C3.70944 5.59488 3.73248 9.02928 3.73248 11.7226C3.73248 15.1805 5.99136 17.051 10.0915 20.447C11.2862 21.4368 12.6907 22.6003 14.2805 24C12.6907 25.4002 11.2862 26.5642 10.0915 27.553C5.99136 30.9494 3.73248 32.8195 3.73248 36.2774C3.73248 38.9707 3.70944 42.4056 3.73248 44.3448H1.75632C0.78624 44.3448 0 45.2021 0 46.1726C0 47.1432 0.78624 48 1.75632 48H32.7134C33.6835 48 34.4698 47.1427 34.4698 46.1722C34.4698 45.2016 33.6835 44.3448 32.7134 44.3448ZM7.74192 14.4538C6.93696 13.5072 6.60576 12.708 6.60576 11.7226C6.60576 9.02688 6.58272 5.58096 6.60576 3.65568H27.8645C27.8875 5.58048 27.8645 9.02688 27.8645 11.7226C27.8645 12.708 27.5333 13.5072 26.7283 14.4538H7.74192ZM27.805 44.3448C27.805 44.3448 23.0693 41.8262 19.019 41.16C19.081 40.9757 19.116 40.7794 19.116 40.5744C19.116 39.5587 18.2923 38.735 17.2762 38.735C16.2605 38.735 15.4368 39.5587 15.4368 40.5744C15.4368 40.7746 15.4694 40.9666 15.5285 41.1466C11.4619 41.7931 6.6648 44.3443 6.6648 44.3443C6.64176 42.419 6.6648 38.9736 6.6648 36.277C6.6648 34.272 7.97232 33.0384 11.9242 29.7653C12.9672 28.9018 14.1672 27.9082 15.5131 26.7389C15.7382 27.5002 16.4419 28.056 17.2762 28.056C18.0898 28.056 18.7786 27.527 19.0214 26.795C20.341 27.9398 21.5189 28.9157 22.5451 29.7653C26.497 33.0384 27.8045 34.2725 27.8045 36.277C27.805 38.9731 27.8275 42.4195 27.805 44.3448ZM19.116 33.3955C19.116 34.4117 18.2923 35.2349 17.2762 35.2349C16.2605 35.2349 15.4368 34.4117 15.4368 33.3955C15.4368 32.3798 16.2605 31.5562 17.2762 31.5562C18.2923 31.5562 19.116 32.3798 19.116 33.3955Z" fill="white"/>
</svg>
