<svg width="240" height="168" viewBox="0 0 240 168" fill="none" xmlns="http://www.w3.org/2000/svg">
<path d="M143.109 49.092L126.515 76.1509C125.211 78.3545 122.811 79.8 120.069 79.8C115.886 79.8 112.526 76.4258 112.526 72.2258C112.526 69.4724 113.966 67.0625 116.16 65.7545L143.109 49.092Z" fill="#135384"/>
<path d="M141.326 46.2L133.303 51.1571C128.297 46.6135 121.646 43.8589 114.377 43.8589C98.7426 43.8589 86.1262 56.5964 86.1262 72.2258C86.1262 74.0847 86.3313 75.8749 86.6062 77.5964C86.6062 77.6651 86.6062 77.8037 86.6062 77.8724C86.6062 78.9742 85.7149 79.8 84.6862 79.8C83.7262 79.8 82.9026 79.1117 82.7662 78.1473C82.4913 76.2197 82.2862 74.2233 82.2862 72.2258C82.2862 51.2957 99.1549 34.3571 120 34.3571C129.6 34.3571 138.309 37.9375 144.96 43.8589L141.326 46.2ZM148.251 47.2331L145.989 50.8822L140.091 60.5215C141.737 64.1018 142.629 68.0957 142.629 72.2957C142.629 76.4946 145.989 79.8687 150.171 79.8687C154.355 79.8687 157.715 76.4946 157.715 72.2957C157.715 62.6553 154.149 53.9117 148.251 47.2331Z" fill="#B4BFC1"/>
<path d="M67.4062 99.0322C68.0226 99.6518 68.3651 100.341 68.3651 101.236V130.842C68.3651 131.738 68.0913 132.495 67.4738 133.046C66.9251 133.665 66.1026 133.941 65.2113 133.941C64.2513 133.941 63.4975 133.665 62.88 133.046C62.2626 132.495 61.9887 131.738 61.9887 130.773V110.187L53.6226 123.063C53.28 123.475 52.8687 123.82 52.4575 124.026C52.0451 124.302 51.5662 124.371 51.0851 124.371C50.6738 124.371 50.1938 124.302 49.7826 124.026C49.3713 123.751 48.96 123.406 48.6175 123.063L40.2513 109.705V130.773C40.2513 131.669 39.9775 132.426 39.4287 133.046C38.88 133.597 38.1938 133.941 37.3025 133.941C36.48 133.941 35.7262 133.665 35.2451 133.046C34.6975 132.426 34.4225 131.738 34.4225 130.842V101.236C34.4225 100.41 34.7651 99.6518 35.3825 99.0322C36 98.4125 36.7538 98.1376 37.6451 98.1376C38.1262 98.1376 38.6738 98.2751 39.1538 98.5511C39.6338 98.826 40.0451 99.1707 40.32 99.5144L51.4287 116.659L62.6738 99.5144C62.9487 99.102 63.2913 98.7573 63.7713 98.5511C64.2513 98.3438 64.6626 98.1376 65.1426 98.1376C66.0338 98.1376 66.72 98.4125 67.4062 99.0322Z" fill="#333333"/>
<path d="M97.8513 128.41C98.4687 128.961 98.7425 129.718 98.7425 130.613C98.7425 131.439 98.4687 132.196 97.8513 132.747C97.2338 133.298 96.5487 133.574 95.6574 133.574H79.1313C78.24 133.574 77.4862 133.298 76.9374 132.679C76.32 132.059 76.0462 131.371 76.0462 130.475V100.937C76.0462 100.043 76.32 99.2847 76.9374 98.7349C77.5538 98.1141 78.3087 97.8392 79.2687 97.8392C80.0913 97.8392 80.8451 98.1141 81.4625 98.7349C82.08 99.3545 82.3538 100.043 82.3538 100.937V127.653H95.6574C96.48 127.584 97.2338 127.859 97.8513 128.41Z" fill="#333333"/>
<path d="M124.251 99.3545C125.829 100.387 127.063 101.764 128.023 103.555C128.983 105.345 129.463 107.204 129.463 109.337C129.463 111.404 128.983 113.263 128.023 115.053C127.063 116.843 125.829 118.22 124.251 119.253C122.674 120.285 121.029 120.836 119.314 120.836H110.4V130.475C110.4 131.371 110.125 132.128 109.577 132.747C109.029 133.298 108.343 133.643 107.451 133.643C106.629 133.643 105.874 133.367 105.394 132.747C104.845 132.128 104.571 131.439 104.571 130.545V101.006C104.571 100.112 104.845 99.3545 105.463 98.8036C106.08 98.184 106.765 97.908 107.657 97.908H119.314C121.029 97.7705 122.674 98.3215 124.251 99.3545ZM121.234 114.157C121.851 113.606 122.4 112.918 122.743 112.023C123.154 111.128 123.36 110.233 123.36 109.269C123.36 108.305 123.154 107.41 122.743 106.514C122.331 105.62 121.851 104.931 121.234 104.449C120.617 103.898 120 103.623 119.314 103.623H110.4V114.984H119.314C119.931 114.984 120.549 114.708 121.234 114.157Z" fill="#333333"/>
<path d="M157.645 120.767C157.029 121.249 156.343 121.525 155.52 121.525H138.72C139.131 123.521 140.091 125.105 141.531 126.275C142.971 127.445 144.616 127.996 146.469 127.996C147.84 127.996 148.936 127.859 149.691 127.584C150.445 127.308 151.063 127.033 151.543 126.757C152.023 126.482 152.296 126.275 152.503 126.137C153.12 125.863 153.669 125.655 154.216 125.655C154.903 125.655 155.52 125.931 156.069 126.413C156.549 126.896 156.823 127.515 156.823 128.204C156.823 129.098 156.343 129.925 155.383 130.682C154.423 131.439 153.189 132.128 151.543 132.679C149.965 133.229 148.32 133.505 146.743 133.505C143.863 133.505 141.394 132.885 139.269 131.715C137.143 130.545 135.496 128.892 134.331 126.757C133.165 124.692 132.616 122.282 132.616 119.665C132.616 116.705 133.234 114.157 134.469 111.955C135.703 109.751 137.28 108.029 139.269 106.859C141.256 105.688 143.383 105.069 145.645 105.069C147.909 105.069 149.965 105.688 151.954 106.928C153.943 108.167 155.52 109.82 156.685 111.885C157.851 113.951 158.469 116.223 158.469 118.633C158.536 119.596 158.263 120.216 157.645 120.767ZM138.789 116.429H152.091V116.086C151.954 114.639 151.269 113.4 150.034 112.436C148.8 111.404 147.36 110.921 145.783 110.921C141.805 110.853 139.474 112.712 138.789 116.429Z" fill="#333333"/>
<path d="M180.686 106.584C181.371 107.135 181.715 107.823 181.715 108.649C181.715 109.682 181.44 110.508 180.891 110.99C180.343 111.541 179.726 111.747 178.971 111.747C178.491 111.747 177.875 111.61 177.257 111.404C177.189 111.404 176.915 111.335 176.571 111.196C176.229 111.128 175.817 111.059 175.406 111.059C174.515 111.059 173.691 111.335 172.869 111.886C172.046 112.436 171.36 113.263 170.88 114.364C170.331 115.465 170.126 116.774 170.126 118.288V130.406C170.126 131.302 169.851 132.059 169.235 132.61C168.686 133.229 167.931 133.505 167.04 133.505C166.149 133.505 165.463 133.229 164.846 132.61C164.297 131.99 163.955 131.302 163.955 130.406V109.337C163.955 108.443 164.229 107.686 164.846 107.135C165.394 106.515 166.149 106.239 167.04 106.239C167.931 106.239 168.617 106.515 169.235 107.135C169.783 107.755 170.126 108.443 170.126 109.337V110.026C170.88 108.649 172.046 107.547 173.486 106.859C174.926 106.102 176.503 105.757 178.149 105.757C179.109 105.757 180 106.033 180.686 106.584Z" fill="#333333"/>
<path d="M197.691 102.108C197.211 102.796 197.005 103.486 197.005 104.312V106.721H201.669C202.491 106.721 203.176 106.996 203.725 107.547C204.274 108.098 204.549 108.718 204.549 109.545C204.549 110.371 204.274 111.059 203.725 111.541C203.176 112.092 202.491 112.367 201.669 112.367H197.005V130.475C197.005 131.371 196.731 132.128 196.114 132.679C195.565 133.298 194.811 133.574 193.92 133.574C193.029 133.574 192.274 133.298 191.725 132.679C191.176 132.059 190.834 131.371 190.834 130.475V112.367H188.091C187.269 112.367 186.583 112.092 186.034 111.541C185.485 110.99 185.211 110.371 185.211 109.545C185.211 108.718 185.485 108.029 186.034 107.547C186.583 106.996 187.269 106.721 188.091 106.721H190.834V104.38C190.834 101.833 191.725 99.7669 193.44 98.1142C195.223 96.5313 197.691 95.7043 200.983 95.7043C202.216 95.7043 203.314 95.9804 204.274 96.4625C205.234 96.9447 205.645 97.7705 205.645 98.8036C205.645 99.6294 205.44 100.318 204.96 100.8C204.48 101.282 203.931 101.557 203.245 101.557C203.109 101.557 202.903 101.557 202.696 101.488C202.491 101.488 202.285 101.42 202.08 101.42C201.256 101.213 200.571 101.145 200.023 101.145C198.925 101.145 198.171 101.488 197.691 102.108Z" fill="#333333"/>
<path d="M225.043 98.1376C225.352 98.1376 225.579 98.2053 225.725 98.3408C225.879 98.4762 225.966 98.7019 225.984 99.0179L226.393 105.031C226.411 105.347 226.361 105.572 226.243 105.708C226.134 105.843 225.925 105.911 225.616 105.911C225.307 105.911 225.088 105.848 224.961 105.721C224.843 105.586 224.775 105.356 224.757 105.031L224.511 101.523L223.243 104.123C223.134 104.331 222.993 104.493 222.82 104.611C222.647 104.719 222.461 104.773 222.261 104.773C222.061 104.773 221.87 104.719 221.688 104.611C221.516 104.493 221.379 104.331 221.279 104.123L219.997 101.523L219.765 105.031C219.747 105.356 219.675 105.586 219.547 105.721C219.429 105.848 219.215 105.911 218.906 105.911C218.597 105.911 218.384 105.843 218.265 105.708C218.156 105.572 218.111 105.347 218.129 105.031L218.538 99.0179C218.556 98.7019 218.638 98.4762 218.784 98.3408C218.938 98.2053 219.17 98.1376 219.479 98.1376C219.934 98.1376 220.215 98.255 220.325 98.4897L222.261 102.539L224.198 98.4897C224.307 98.255 224.588 98.1376 225.043 98.1376ZM215.947 98.2731C216.256 98.2731 216.474 98.3363 216.602 98.4626C216.738 98.58 216.806 98.7877 216.806 99.0856C216.806 99.3835 216.738 99.5912 216.602 99.7085C216.474 99.8259 216.256 99.8846 215.947 99.8846H214.188V105.031C214.188 105.347 214.124 105.572 213.997 105.708C213.87 105.843 213.651 105.911 213.342 105.911C213.033 105.911 212.815 105.843 212.688 105.708C212.561 105.572 212.497 105.347 212.497 105.031V99.8846H210.738C210.429 99.8846 210.206 99.8259 210.069 99.7085C209.942 99.5912 209.879 99.3835 209.879 99.0856C209.879 98.7877 209.942 98.58 210.069 98.4626C210.206 98.3363 210.429 98.2731 210.738 98.2731H215.947Z" fill="#333333"/>
</svg>
