<svg width="1000" height="1024" viewBox="0 0 1000 1024" fill="none" xmlns="http://www.w3.org/2000/svg">
<g clip-path="url(#clip0_2_2)">
<path d="M391.25 368H98.75C80.1102 368 65 352.89 65 334.25V131.75C65 113.11 80.1102 98 98.75 98H391.25C409.89 98 425 113.11 425 131.75V334.25C425 352.89 409.89 368 391.25 368ZM143.75 137.375C122.004 137.375 104.375 155.004 104.375 176.75C104.375 198.496 122.004 216.125 143.75 216.125C165.496 216.125 183.125 198.496 183.125 176.75C183.125 155.004 165.496 137.375 143.75 137.375ZM110 323H380V244.25L318.466 182.716C315.171 179.421 309.829 179.421 306.533 182.716L211.25 278L172.216 238.966C168.921 235.671 163.579 235.671 160.283 238.966L110 289.25V323Z" fill="#26507D"/>
<path d="M818.75 900H331.25C300.184 900 275 874.816 275 843.75V506.25C275 475.184 300.184 450 331.25 450H818.75C849.816 450 875 475.184 875 506.25V843.75C875 874.816 849.816 900 818.75 900ZM406.25 515.625C370.006 515.625 340.625 545.006 340.625 581.25C340.625 617.494 370.006 646.875 406.25 646.875C442.494 646.875 471.875 617.494 471.875 581.25C471.875 545.006 442.494 515.625 406.25 515.625ZM350 825H800V693.75L697.443 591.193C691.952 585.702 683.048 585.702 677.555 591.193L518.75 750L453.693 684.943C448.202 679.452 439.298 679.452 433.805 684.943L350 768.75V825Z" fill="#26507D"/>
<path d="M415 112L856 465" stroke="#26507D" stroke-width="5" stroke-dasharray="10 10"/>
<path d="M78 353L288 878" stroke="#26507D" stroke-width="5" stroke-dasharray="10 10"/>
</g>
<defs>
<clipPath id="clip0_2_2">
<rect width="1000" height="1024" fill="white"/>
</clipPath>
</defs>
</svg>
