<svg
    xmlns="http://www.w3.org/2000/svg"
    viewBox="0 0 28 26"
    id="vector">
    <path
        id="path"
        d="M 12.373 10.972 L 12.366 10.982 C 12.365 10.984 12.363 10.986 12.362 10.988 C 12.29 11.495 12.129 12.965 12.07 14.433 L 12.454 14.777 L 12.469 14.793 C 12.824 15.148 12.922 15.691 12.72 16.146 C 12.525 16.584 12.088 16.878 11.595 16.878 L 11.583 16.878 L 10.188 16.837 L 4.248 16.748 L 4.053 16.748 L 4.031 16.747 C 3.128 16.699 2.233 16.113 2.047 15.155 L 2.047 15.152 L 2.046 15.148 C 2.012 14.966 1.993 14.588 1.978 14.209 C 1.962 13.795 1.947 13.281 1.935 12.762 C 1.919 12.096 1.906 11.379 1.897 10.875 C 1.892 10.613 1.889 10.408 1.886 10.297 L 1.886 10.287 L 1.886 10.261 C 1.886 10.236 1.886 9.904 1.775 9.591 C 1.72 9.437 1.655 9.335 1.591 9.274 C 1.544 9.229 1.48 9.188 1.352 9.178 C 0.662 9.157 0.163 8.554 0.193 7.905 C 0.21 7.203 0.829 6.697 1.488 6.74 C 2.67 6.809 3.424 7.466 3.844 8.223 C 4.239 8.936 4.35 9.74 4.342 10.294 C 4.347 10.602 4.352 10.914 4.358 11.225 C 4.592 10.466 4.853 9.775 5.043 9.326 C 5.39 8.487 6.191 7.115 7.439 6.083 C 7.721 5.845 8.108 5.701 8.326 5.62 C 8.335 5.616 8.343 5.613 8.351 5.61 C 8.368 5.604 8.384 5.598 8.399 5.592 C 8.511 5.55 8.594 5.519 8.666 5.488 C 8.703 5.472 8.724 5.461 8.734 5.456 L 9.065 5.169 L 12.428 6.274 L 12.448 6.846 C 12.465 7.321 12.483 7.634 12.551 7.861 C 12.643 8.106 12.702 8.322 12.742 8.522 L 12.743 8.524 L 12.743 8.526 C 12.814 8.893 12.84 9.316 12.799 9.723 C 12.759 10.118 12.649 10.581 12.381 10.962 L 12.373 10.972 Z M 11.774 8.129 C 11.66 7.771 11.644 7.332 11.628 6.876 L 9.251 6.094 C 9.137 6.193 8.919 6.275 8.686 6.362 C 8.422 6.46 8.138 6.566 7.965 6.713 C 6.842 7.641 6.109 8.894 5.8 9.643 C 5.393 10.604 4.693 12.622 4.612 13.957 C 4.596 14.13 4.585 14.306 4.575 14.453 C 4.564 14.626 4.555 14.76 4.546 14.804 C 4.499 14.969 4.41 15.065 4.277 15.106 C 4.273 15.107 4.269 15.108 4.266 15.11 C 4.262 15.111 4.258 15.112 4.253 15.113 C 4.243 15.115 4.232 15.118 4.221 15.12 C 4.188 15.126 4.153 15.129 4.116 15.129 C 4.113 15.129 4.11 15.129 4.107 15.129 C 4.096 15.128 4.085 15.127 4.074 15.126 C 3.861 15.1 3.682 14.977 3.651 14.869 C 3.65 14.864 3.649 14.858 3.648 14.852 C 3.648 14.85 3.648 14.848 3.647 14.845 C 3.6 14.494 3.553 12.278 3.521 10.294 C 3.521 10.289 3.521 10.284 3.521 10.278 C 3.521 10.273 3.521 10.267 3.521 10.262 C 3.521 10.261 3.521 10.26 3.521 10.259 C 3.527 9.364 3.146 7.745 1.57 7.571 C 1.526 7.566 1.482 7.562 1.437 7.559 C 1.437 7.559 1.437 7.559 1.437 7.559 C 1.421 7.558 1.404 7.558 1.388 7.559 C 1.182 7.569 1.014 7.737 1.014 7.934 C 0.998 8.159 1.172 8.352 1.38 8.357 C 1.383 8.357 1.386 8.357 1.388 8.357 C 1.389 8.357 1.39 8.357 1.391 8.357 C 1.429 8.36 1.466 8.363 1.501 8.368 C 2.71 8.537 2.707 10.166 2.707 10.259 C 2.707 10.26 2.707 10.261 2.707 10.262 L 2.707 10.278 C 2.707 10.279 2.707 10.279 2.707 10.28 C 2.707 10.289 2.707 10.298 2.708 10.307 C 2.71 10.435 2.714 10.637 2.719 10.886 C 2.741 12.149 2.786 14.636 2.853 14.999 C 2.855 15.005 2.856 15.011 2.857 15.018 C 2.862 15.042 2.869 15.066 2.876 15.09 C 3.011 15.544 3.48 15.887 4.05 15.925 C 4.058 15.926 4.066 15.926 4.074 15.927 L 4.253 15.927 L 9.674 16.008 L 9.17 11.059 C 9.169 11.053 9.169 11.046 9.169 11.039 C 9.163 10.82 9.322 10.636 9.528 10.62 C 9.756 10.604 9.951 10.766 9.967 10.978 L 10.488 16.024 L 11.595 16.057 C 11.758 16.057 11.905 15.959 11.97 15.813 C 12.035 15.666 12.002 15.487 11.888 15.373 L 11.237 14.787 C 11.286 12.98 11.514 11.027 11.579 10.685 C 11.611 10.62 11.66 10.555 11.709 10.49 C 12.018 10.05 12.051 9.269 11.937 8.683 C 11.905 8.52 11.856 8.341 11.774 8.129 Z"
        fill="#135384"
        fill-rule="evenodd"/>
    <path
        id="path_1"
        d="M 14.757 4.265 C 14.757 4.264 14.757 4.263 14.757 4.261 C 14.758 4.289 14.756 4.296 14.757 4.265 Z M 14.758 4.197 C 14.758 4.168 14.757 4.133 14.755 4.095 C 14.742 3.914 14.694 3.705 14.573 3.474 C 14.355 3.06 13.931 2.631 13.196 2.147 L 12.327 1.158 C 12.327 1.158 12.327 1.158 12.326 1.157 C 12.031 0.82 11.447 0.562 10.87 0.851 C 10.663 0.954 10.455 1.126 10.326 1.385 C 10.233 1.571 10.197 1.769 10.209 1.962 C 10.188 1.997 10.147 2.054 10.069 2.129 C 9.176 2.966 8.971 3.87 8.839 4.449 C 8.835 4.47 8.83 4.491 8.825 4.511 L 8.822 4.527 L 8.819 4.543 C 8.785 4.723 8.795 4.883 8.81 4.999 C 8.823 5.099 8.844 5.196 8.857 5.252 C 8.857 5.257 8.858 5.261 8.859 5.265 L 8.574 5.95 L 12.299 7.155 L 12.47 6.756 C 12.563 6.736 12.679 6.715 12.817 6.693 C 12.896 6.68 12.984 6.667 13.079 6.653 C 13.415 6.602 13.824 6.54 14.093 6.463 C 14.546 6.341 14.827 5.975 14.924 5.62 C 14.987 5.407 14.97 5.205 14.96 5.105 C 14.946 4.973 14.918 4.84 14.892 4.726 C 14.866 4.611 14.835 4.493 14.808 4.392 L 14.808 4.389 C 14.789 4.316 14.772 4.253 14.758 4.197 Z M 14.135 5.394 C 14.184 5.247 14.095 4.906 14.013 4.594 C 13.986 4.492 13.96 4.392 13.94 4.304 C 13.935 4.288 13.936 4.267 13.936 4.24 C 13.941 4.06 13.953 3.607 12.653 2.773 L 11.709 1.699 C 11.595 1.569 11.4 1.504 11.237 1.585 C 11.074 1.666 10.993 1.813 11.042 1.992 C 11.042 1.992 11.042 1.993 11.042 1.994 C 11.042 2.024 11.048 2.328 10.635 2.724 C 9.923 3.389 9.764 4.085 9.636 4.646 C 9.633 4.662 9.629 4.678 9.626 4.694 C 9.602 4.819 9.631 4.952 9.659 5.078 C 9.685 5.197 9.71 5.309 9.687 5.404 C 9.684 5.417 9.68 5.43 9.674 5.443 L 11.839 6.143 C 11.9 6.001 12.459 5.916 13.006 5.833 C 13.338 5.782 13.665 5.732 13.874 5.671 C 14.005 5.638 14.102 5.524 14.135 5.394 Z"
        fill="#135384"
        fill-rule="evenodd"/>
    <path
        id="path_2"
        d="M 27.701 8.193 C 27.588 7.739 27.134 7.649 26.227 7.444 C 25.932 7.376 25.569 7.308 25.365 7.218 C 25.274 7.127 25.138 6.945 25.047 6.832 C 24.843 6.582 24.775 6.492 24.662 6.424 C 24.276 6.151 23.8 5.947 23.528 5.834 L 22.348 4.155 C 22.212 3.951 21.94 3.86 21.713 3.951 C 21.486 4.019 21.327 4.246 21.327 4.495 C 21.327 4.768 21.282 5.108 21.236 5.562 C 21.236 5.652 21.214 5.766 21.191 5.856 C 20.669 6.628 20.647 7.762 20.306 8.647 C 20.17 9.032 20.261 9.509 20.102 9.849 L 23.346 11.437 C 23.369 11.369 23.641 11.165 23.664 11.119 C 23.981 10.507 25.864 10.688 26.635 10.62 C 26.839 10.597 26.998 10.484 27.089 10.325 C 27.384 9.758 27.837 8.76 27.701 8.193 Z"
        fill="#135384"/>
    <path
        id="path_3"
        d="M 19.717 10.779 C 19.671 10.87 19.422 10.915 19.354 11.006 L 18.968 11.437 C 16.972 13.841 13.932 16.835 13.433 17.992 C 13.025 18.945 12.798 20.147 12.594 21.191 C 12.435 22.008 12.276 22.847 12.095 23.164 C 11.777 23.732 11.233 23.913 10.847 23.981 C 10.757 24.004 10.688 24.004 10.62 24.004 L 10.348 24.004 C 9.895 23.981 9.531 23.822 9.395 23.709 C 8.851 23.232 8.601 22.733 8.601 22.212 C 8.601 21.191 9.554 20.352 9.554 20.352 C 9.781 20.147 9.804 19.784 9.6 19.558 C 9.395 19.331 9.033 19.308 8.806 19.512 C 8.76 19.535 7.49 20.669 7.467 22.212 C 7.467 23.074 7.83 23.845 8.601 24.548 C 9.055 24.956 9.849 25.183 10.62 25.161 L 19.172 25.229 L 19.172 24.662 L 19.172 24.639 C 19.422 20.238 16.904 19.694 16.79 19.671 C 16.495 19.603 16.291 19.308 16.337 19.013 C 16.405 18.718 16.677 18.514 16.995 18.559 C 17.04 18.559 20.624 19.263 20.306 24.684 L 20.306 25.251 L 21.94 25.274 C 22.212 25.274 22.439 25.093 22.484 24.843 C 22.552 24.593 22.416 24.321 22.189 24.208 L 21.872 24.049 C 22.144 21.554 21.985 18.696 22.099 18.265 C 22.144 18.197 22.212 18.083 22.303 17.992 C 22.643 17.516 22.938 16.858 22.983 16.132 C 23.006 15.883 23.029 15.565 23.051 15.202 C 23.051 14.476 22.892 13.41 23.051 12.548 L 19.717 10.779 Z"
        fill="#135384"/>
</svg>
