<svg
    xmlns="http://www.w3.org/2000/svg"
    viewBox="0 0 24 26"
    id="vector">
    <path
        id="path"
        d="M 4.291 4.195 L 23.598 4.195 L 23.598 25.414 L 4.291 25.414 Z"
        fill="#135384"/>
    <path
        id="path_1"
        d="M 18.954 16.414 C 19.318 15.898 19.356 14.98 19.222 14.292 C 19.184 14.101 19.126 13.891 19.031 13.642 C 18.897 13.222 18.878 12.706 18.859 12.17 L 16.068 11.253 C 15.781 11.501 14.94 11.654 14.558 11.979 C 13.239 13.069 12.378 14.541 12.015 15.42 C 11.537 16.548 10.715 18.918 10.62 20.486 C 10.582 20.926 10.562 21.384 10.543 21.48 C 10.467 21.748 10.295 21.862 10.027 21.862 C 9.759 21.843 9.53 21.69 9.492 21.556 C 9.434 21.251 9.377 18.574 9.339 16.185 C 9.358 15.114 8.899 13.088 6.892 12.973 C 6.624 12.954 6.395 13.164 6.395 13.413 C 6.376 13.681 6.586 13.91 6.835 13.91 C 8.402 14.006 8.383 16.07 8.383 16.147 L 8.383 16.166 C 8.402 17.007 8.46 21.193 8.555 21.709 C 8.67 22.302 9.262 22.761 9.989 22.799 C 10.046 22.799 10.104 22.799 10.161 22.799 C 10.18 22.799 10.199 22.799 10.199 22.799 L 16.565 22.895 L 15.972 17.083 C 15.953 16.816 16.144 16.586 16.393 16.567 C 16.66 16.548 16.89 16.739 16.909 16.988 L 17.521 22.914 L 18.821 22.952 C 19.012 22.952 19.184 22.837 19.26 22.665 C 19.337 22.493 19.299 22.283 19.165 22.149 L 18.4 21.461 C 18.457 19.339 18.725 17.045 18.802 16.644 C 18.84 16.567 18.897 16.491 18.954 16.414 Z"
        fill="#ffffff"/>
    <path
        id="path_2"
        d="M 21.573 9.15 C 21.535 9.016 21.822 8.481 20.063 7.353 L 18.954 6.091 C 18.82 5.939 18.591 5.862 18.4 5.958 C 18.209 6.053 18.113 6.225 18.171 6.436 C 18.171 6.455 18.19 6.818 17.693 7.296 C 16.832 8.099 16.66 8.94 16.507 9.609 C 16.45 9.915 16.66 10.259 16.565 10.488 L 19.107 11.31 C 19.222 11.043 20.847 10.947 21.497 10.756 C 21.65 10.717 21.764 10.584 21.803 10.431 C 21.879 10.201 21.669 9.571 21.573 9.15 Z"
        fill="#ffffff"/>
    <path
        id="path_3"
        d="M 19.91 0.726 L 0.603 0.726 L 0.603 21.945 L 2.897 21.945 L 2.897 3.02 L 19.91 3.02 L 19.91 0.726 Z"
        fill="#135384"
        fill-rule="evenodd"/>
</svg>
