<svg width="20" height="17" viewBox="0 0 20 17" fill="none" xmlns="http://www.w3.org/2000/svg">
<path d="M7 7.57143C7 6.70469 7.72871 6 8.625 6H18.375C19.2713 6 20 6.70469 20 7.57143V15.4286C20 16.2953 19.2713 17 18.375 17H8.625C7.72871 17 7 16.2953 7 15.4286V7.57143ZM15.2215 10.1864C15.1072 10.0243 14.9193 9.92857 14.7188 9.92857C14.5182 9.92857 14.3277 10.0243 14.216 10.1864L12.007 13.3194L11.3342 12.5067C11.2174 12.3667 11.0422 12.2857 10.8594 12.2857C10.6766 12.2857 10.4988 12.3667 10.3846 12.5067L8.75957 14.471C8.6123 14.6478 8.58438 14.8908 8.68594 15.0946C8.7875 15.2984 9.00078 15.4286 9.23438 15.4286H17.7656C17.9916 15.4286 18.1998 15.3083 18.3039 15.1143C18.408 14.9203 18.3953 14.6871 18.2684 14.5078L15.2215 10.1864ZM9.84375 9.92857C10.167 9.92857 10.477 9.8044 10.7055 9.58338C10.9341 9.36235 11.0625 9.06258 11.0625 8.75C11.0625 8.43742 10.9341 8.13765 10.7055 7.91662C10.477 7.6956 10.167 7.57143 9.84375 7.57143C9.52052 7.57143 9.21052 7.6956 8.98196 7.91662C8.7534 8.13765 8.625 8.43742 8.625 8.75C8.625 9.06258 8.7534 9.36235 8.98196 9.58338C9.21052 9.8044 9.52052 9.92857 9.84375 9.92857Z" fill="white"/>
<path d="M0 0.857143C0 0.384375 0.392383 0 0.875 0H6.125C6.60762 0 7 0.384375 7 0.857143V5.14286C7 5.61562 6.60762 6 6.125 6H0.875C0.392383 6 0 5.61562 0 5.14286V0.857143ZM4.42695 2.28348C4.36543 2.19509 4.26426 2.14286 4.15625 2.14286C4.04824 2.14286 3.9457 2.19509 3.88555 2.28348L2.69609 3.99241L2.33379 3.54911C2.2709 3.47277 2.17656 3.42857 2.07812 3.42857C1.97969 3.42857 1.88398 3.47277 1.82246 3.54911L0.947461 4.62054C0.868164 4.71696 0.853125 4.84955 0.907813 4.96071C0.9625 5.07188 1.07734 5.14286 1.20312 5.14286H5.79688C5.91855 5.14286 6.03066 5.07723 6.08672 4.97143C6.14277 4.86563 6.13594 4.73839 6.06758 4.64062L4.42695 2.28348ZM1.53125 2.14286C1.7053 2.14286 1.87222 2.07513 1.99529 1.95457C2.11836 1.83401 2.1875 1.6705 2.1875 1.5C2.1875 1.3295 2.11836 1.16599 1.99529 1.04543C1.87222 0.924872 1.7053 0.857143 1.53125 0.857143C1.3572 0.857143 1.19028 0.924872 1.06721 1.04543C0.94414 1.16599 0.875 1.3295 0.875 1.5C0.875 1.6705 0.94414 1.83401 1.06721 1.95457C1.19028 2.07513 1.3572 2.14286 1.53125 2.14286Z" fill="white"/>
<line x1="0.967625" y1="5.70796" x2="7.21299" y2="15.8691" stroke="white" stroke-width="0.5"/>
<line x1="6.10476" y1="0.77301" x2="19.1048" y2="6.77301" stroke="white" stroke-width="0.5"/>
</svg>
