<svg width="15" height="15" viewBox="0 0 15 15" fill="none" xmlns="http://www.w3.org/2000/svg">
<path d="M5.56615 0.67815C5.39716 0.695094 5.24006 0.780315 5.12568 0.917095C5.0113 1.05388 4.94789 1.23235 4.94788 1.4175V3.6C4.94788 3.68951 4.91529 3.77535 4.85728 3.83865C4.79927 3.90194 4.72059 3.9375 4.63855 3.9375C4.04338 3.9375 3.62515 4.2021 3.31581 4.6071C2.9974 5.0247 2.78994 5.5998 2.66001 6.20775C2.53092 6.8121 2.4839 7.42095 2.46987 7.88265C2.46519 8.03004 2.46354 8.17753 2.46492 8.325H5.36034V7.9875C5.36034 7.71905 5.26262 7.46158 5.08867 7.27171C4.91472 7.08185 4.67879 6.97512 4.43273 6.975H3.91717C3.83513 6.975 3.75644 6.93944 3.69843 6.87615C3.64042 6.81286 3.60783 6.72701 3.60783 6.6375C3.60783 6.54799 3.64042 6.46214 3.69843 6.39885C3.75644 6.33556 3.83513 6.3 3.91717 6.3H4.43273C4.63579 6.30006 4.83685 6.34375 5.02444 6.42859C5.21202 6.51343 5.38245 6.63774 5.526 6.79444C5.66954 6.95114 5.7834 7.13715 5.86105 7.34186C5.93871 7.54656 5.97865 7.76595 5.9786 7.9875V8.325H6.28794C6.36998 8.325 6.44866 8.28944 6.50667 8.22615C6.56469 8.16286 6.59728 8.07701 6.59728 7.9875V3.4875C6.59728 3.39814 6.62976 3.31244 6.68759 3.24917C6.74542 3.1859 6.82389 3.15024 6.90579 3.15H7.11449C7.20637 3.14999 7.29658 3.12318 7.37578 3.07236C7.45498 3.02155 7.52029 2.94856 7.56496 2.86096C7.60963 2.77336 7.63202 2.67432 7.62984 2.57411C7.62765 2.47389 7.60096 2.37613 7.55252 2.29095L7.2968 1.84095C7.25059 1.75969 7.18615 1.69263 7.10958 1.64609C7.03301 1.59956 6.94683 1.57509 6.85918 1.575H5.87507C5.79303 1.575 5.71435 1.53944 5.65634 1.47615C5.59833 1.41286 5.56574 1.32701 5.56574 1.2375L5.56615 0.67815ZM1.84666 8.325C1.84542 8.1972 1.84625 8.0397 1.85161 7.86015C1.86646 7.3728 1.91636 6.71625 2.05783 6.05475C2.19807 5.39685 2.43523 4.70655 2.84108 4.1751C3.20074 3.70395 3.68867 3.36465 4.33003 3.28185V1.4175C4.33003 1.04187 4.46669 0.681593 4.70998 0.415812C4.95328 0.150031 5.28331 0.000476994 5.6276 0C5.93529 0 6.18441 0.2718 6.18441 0.6075V0.9H6.85918C7.25101 0.9 7.61562 1.1214 7.82226 1.485L8.07798 1.935C8.52838 2.72835 8.04333 3.744 7.21472 3.8205V7.9875C7.21472 8.2558 7.11712 8.51313 6.94335 8.70297C6.76958 8.89281 6.53385 8.99964 6.28794 9H1.5666C1.26131 9.00011 0.962637 8.90286 0.707331 8.72021C0.452025 8.53757 0.251218 8.27748 0.129608 7.97196C0.00799792 7.66644 -0.0291105 7.32879 0.022847 7.00056C0.0748044 6.67233 0.213562 6.36782 0.422052 6.1245L0.890184 5.57685C1.1131 5.31602 1.23454 4.97099 1.22893 4.61442C1.22331 4.25784 1.09108 3.91756 0.860075 3.66525L0.401017 3.1635C0.346375 3.09952 0.316628 3.0149 0.318042 2.92746C0.319456 2.84003 0.351921 2.75661 0.408597 2.69477C0.465273 2.63293 0.541735 2.59751 0.621875 2.59597C0.702015 2.59443 0.779575 2.62688 0.838215 2.6865L1.29769 3.1878C1.64224 3.56373 1.83955 4.07094 1.84801 4.6025C1.85647 5.13406 1.67543 5.64844 1.34306 6.0372L0.874511 6.58485C0.748741 6.73228 0.66513 6.91654 0.633926 7.11505C0.602722 7.31356 0.625281 7.51769 0.698838 7.70241C0.772396 7.88714 0.893754 8.04444 1.04804 8.15502C1.20232 8.26561 1.38283 8.32469 1.56743 8.325H1.84666Z" fill="#135384"/>
<path d="M6.70252 15H5.88639C5.47005 15.0002 5.06275 14.8624 4.71459 14.6036C4.36643 14.3449 4.09259 13.9764 3.92675 13.5436C3.76091 13.1108 3.7103 12.6325 3.78116 12.1675C3.85201 11.7025 4.04124 11.2711 4.32555 10.9264L4.96395 10.1505C5.26794 9.78103 5.43355 9.29224 5.42589 8.78709C5.41823 8.28194 5.23791 7.79988 4.92289 7.44244L4.29631 6.73162C4.22179 6.64099 4.18122 6.52111 4.18315 6.39724C4.18508 6.27338 4.22935 6.15519 4.30664 6.06759C4.38393 5.97999 4.4882 5.92981 4.59749 5.92763C4.70678 5.92544 4.81255 5.97142 4.89252 6.05587L5.5191 6.76605C5.98897 7.29862 6.25803 8.01716 6.26958 8.77021C6.28112 9.52325 6.03423 10.252 5.58097 10.8027L4.94201 11.5785C4.7705 11.7874 4.65648 12.0484 4.61393 12.3297C4.57137 12.6109 4.60214 12.9001 4.70245 13.1618C4.80276 13.4234 4.96825 13.6463 5.17865 13.803C5.38905 13.9596 5.63521 14.0433 5.88695 14.0437H6.26774C6.26605 13.8621 6.26717 13.6396 6.27449 13.3852C6.29473 12.6948 6.36279 11.7647 6.55572 10.8276C6.74695 9.89554 7.07037 8.91761 7.62383 8.16472C8.1143 7.49726 8.77969 7.01659 9.65432 6.89929V4.25813C9.65432 3.72598 9.84068 3.21559 10.1725 2.83907C10.5042 2.46254 10.9543 2.25068 11.4238 2.25C11.8434 2.25 12.1832 2.63505 12.1832 3.11062V3.525H13.1033C13.6377 3.525 14.1349 3.83865 14.4167 4.35375L14.7654 4.99125C15.3796 6.11516 14.7182 7.554 13.5882 7.66237V13.5656C13.5882 13.9457 13.4551 14.3103 13.2181 14.5792C12.9811 14.8481 12.6597 14.9995 12.3243 15H11.9025V13.5656C11.9026 13.2518 11.8481 12.941 11.7422 12.651C11.6363 12.361 11.481 12.0975 11.2853 11.8755C11.0895 11.6535 10.8571 11.4774 10.6013 11.3572C10.3455 11.237 10.0713 11.1751 9.79437 11.175H9.0913C8.97942 11.175 8.87212 11.2254 8.79301 11.315C8.71389 11.4047 8.66945 11.5263 8.66945 11.6531C8.66945 11.7799 8.71389 11.9015 8.79301 11.9912C8.87212 12.0809 8.97942 12.1312 9.0913 12.1312H9.79437C10.1299 12.1314 10.4517 12.2826 10.6889 12.5516C10.9261 12.8206 11.0594 13.1853 11.0594 13.5656V15H6.70252Z" fill="#135384"/>
</svg>
