<svg width="18" height="18" viewBox="0 0 18 18" fill="none" xmlns="http://www.w3.org/2000/svg">
<rect x="0.5" y="0.5" width="14.5455" height="15.3636" rx="4.5" fill="#135384" stroke="white"/>
<rect x="3.45459" y="2.63672" width="13.5455" height="14.3636" rx="4" fill="#135384" stroke="white" stroke-width="2"/>
<path d="M11.0043 8.26039L11.3981 6.04395C11.4305 5.86177 11.5992 5.72754 11.797 5.72754C11.9248 5.72754 12.0442 5.78347 12.1209 5.87935L12.4089 6.2389H13.2971C13.5136 6.2389 13.7215 6.3204 13.8749 6.46422L14.1818 6.75027H15.1364C15.3631 6.75027 15.5455 6.92125 15.5455 7.13379V7.51731C15.5455 8.22363 14.9352 8.79572 14.1818 8.79572H13.0005L12.9135 9.28311L11.0043 8.26039ZM12.8181 9.82005V13.398C12.8181 13.6808 12.5743 13.9094 12.2726 13.9094H11.7271C11.4254 13.9094 11.1816 13.6808 11.1816 13.398V11.5571C10.7725 11.7536 10.3088 11.8639 9.8179 11.8639C9.32697 11.8639 8.86331 11.7536 8.45419 11.5571V13.398C8.45419 13.6808 8.21043 13.9094 7.90871 13.9094H7.36323C7.06151 13.9094 6.81774 13.6808 6.81774 13.398V9.71937C6.32681 9.54519 5.94156 9.15527 5.8086 8.65669L5.74382 8.409C5.67052 8.13574 5.84781 7.85769 6.141 7.78897C6.4342 7.72026 6.7291 7.88645 6.8024 8.16131L6.86888 8.409C6.92855 8.63592 7.14674 8.79572 7.39732 8.79572H10.9055L12.8181 9.82005ZM13.6363 7.00595C13.6363 6.93814 13.6076 6.8731 13.5564 6.82515C13.5053 6.7772 13.4359 6.75027 13.3635 6.75027C13.2912 6.75027 13.2218 6.7772 13.1707 6.82515C13.1195 6.8731 13.0908 6.93814 13.0908 7.00595C13.0908 7.07376 13.1195 7.13879 13.1707 7.18674C13.2218 7.23469 13.2912 7.26163 13.3635 7.26163C13.4359 7.26163 13.5053 7.23469 13.5564 7.18674C13.6076 7.13879 13.6363 7.07376 13.6363 7.00595Z" fill="white"/>
</svg>
