<svg width="15" height="15" viewBox="0 0 15 15" fill="none" xmlns="http://www.w3.org/2000/svg">
<path d="M8.43687 5.625H8.9379C9.58542 6.74707 10.7984 7.5 12.1872 7.5C12.5095 7.5 12.826 7.45898 13.1248 7.38281V14.0625C13.1248 14.5811 12.7058 15 12.1872 15C11.6686 15 11.2496 14.5811 11.2496 14.0625V9.9375L7.26489 13.125H8.90567C9.42427 13.125 9.84326 13.5439 9.84326 14.0625C9.84326 14.5811 9.42427 15 8.90567 15H4.68652C3.13363 15 1.87375 13.7402 1.87375 12.1875V5.63965C1.87375 5.16797 1.52215 4.7666 1.05336 4.70801L0.82189 4.67871C0.309146 4.61426 -0.0571003 4.14551 0.00735895 3.63281C0.0718182 3.12012 0.540613 2.75391 1.05336 2.81836L1.28482 2.84766C2.69121 3.02344 3.74893 4.21875 3.74893 5.63965V8.13867C4.75684 6.62402 6.47966 5.625 8.43687 5.625ZM13.1248 6.40137C12.8318 6.50391 12.5154 6.5625 12.1872 6.5625C11.3551 6.5625 10.605 6.19922 10.0894 5.625C9.98097 5.50488 9.88428 5.37598 9.79931 5.23828C9.52975 4.80469 9.37446 4.29492 9.37446 3.75V0.313477C9.37446 0.140625 9.51217 0.00292969 9.68504 0H9.6909C9.78759 0 9.87842 0.046875 9.93702 0.123047V0.125977L10.3121 0.624023L11.109 1.6875L11.2496 1.875H13.1248L13.2655 1.6875L14.0624 0.624023L14.4374 0.125977V0.123047C14.496 0.046875 14.5869 0 14.6836 0H14.6894C14.8623 0.00292969 15 0.140625 15 0.313477V3.75C15 4.25684 14.8652 4.73438 14.6308 5.14453C14.2997 5.72461 13.7636 6.17578 13.1248 6.40137ZM11.7184 3.75C11.7184 3.62568 11.669 3.50645 11.5811 3.41854C11.4932 3.33064 11.374 3.28125 11.2496 3.28125C11.1253 3.28125 11.0061 3.33064 10.9182 3.41854C10.8302 3.50645 10.7808 3.62568 10.7808 3.75C10.7808 3.87432 10.8302 3.99355 10.9182 4.08146C11.0061 4.16936 11.1253 4.21875 11.2496 4.21875C11.374 4.21875 11.4932 4.16936 11.5811 4.08146C11.669 3.99355 11.7184 3.87432 11.7184 3.75ZM13.1248 4.21875C13.2492 4.21875 13.3684 4.16936 13.4563 4.08146C13.5442 3.99355 13.5936 3.87432 13.5936 3.75C13.5936 3.62568 13.5442 3.50645 13.4563 3.41854C13.3684 3.33064 13.2492 3.28125 13.1248 3.28125C13.0005 3.28125 12.8812 3.33064 12.7933 3.41854C12.7054 3.50645 12.656 3.62568 12.656 3.75C12.656 3.87432 12.7054 3.99355 12.7933 4.08146C12.8812 4.16936 13.0005 4.21875 13.1248 4.21875Z" fill="#135384"/>
</svg>
