<svg width="15" height="15" viewBox="0 0 15 15" fill="none" xmlns="http://www.w3.org/2000/svg">
<path d="M10.9091 3.75H1.09091C0.490909 3.75 0 4.25625 0 4.875V11.625C0 12.2437 0.490909 12.75 1.09091 12.75H4.90909L3.81818 14.4375V15H8.18182V14.4375L7.09091 12.75H10.9091C11.5091 12.75 12 12.2437 12 11.625V4.875C12 4.25625 11.5091 3.75 10.9091 3.75ZM10.9091 10.5H1.09091V4.875H10.9091V10.5Z" fill="#135384"/>
<path fill-rule="evenodd" clip-rule="evenodd" d="M13.125 0C13.4234 0 13.7095 0.113772 13.9205 0.316287C14.1315 0.518802 14.25 0.793471 14.25 1.07987V4.67944C14.25 4.96584 14.1315 5.24051 13.9205 5.44302C13.7095 5.64554 13.4234 5.75931 13.125 5.75931H8.74988L7.5 6.6592C7.191 6.88166 6.75 6.67 6.75 6.29925V1.07987C6.75 0.793471 6.86853 0.518802 7.0795 0.316287C7.29048 0.113772 7.57663 0 7.875 0H13.125ZM10.125 3.23961H9C8.90054 3.23961 8.80516 3.27754 8.73484 3.34504C8.66451 3.41255 8.625 3.5041 8.625 3.59957C8.625 3.69504 8.66451 3.78659 8.73484 3.8541C8.80516 3.9216 8.90054 3.95953 9 3.95953H10.125C10.2245 3.95953 10.3198 3.9216 10.3902 3.8541C10.4605 3.78659 10.5 3.69504 10.5 3.59957C10.5 3.5041 10.4605 3.41255 10.3902 3.34504C10.3198 3.27754 10.2245 3.23961 10.125 3.23961ZM12 1.79978H9C8.90442 1.79989 8.81249 1.83502 8.74299 1.898C8.67349 1.96098 8.63166 2.04706 8.62606 2.13865C8.62046 2.23023 8.6515 2.32042 8.71285 2.39077C8.7742 2.46113 8.86121 2.50634 8.95613 2.51718L9 2.5197H12C12.0956 2.5196 12.1875 2.48447 12.257 2.42148C12.3265 2.3585 12.3683 2.27242 12.3739 2.18084C12.3795 2.08925 12.3485 1.99906 12.2872 1.92871C12.2258 1.85835 12.1388 1.81314 12.0439 1.8023L12 1.79978Z" fill="#135384"/>
</svg>
