<svg width="18" height="15" viewBox="0 0 18 15" fill="none" xmlns="http://www.w3.org/2000/svg">
<path d="M6.17651 6.6805C6.17651 5.91573 6.81949 5.29395 7.61034 5.29395H16.2133C17.0041 5.29395 17.6471 5.91573 17.6471 6.6805V13.6133C17.6471 14.378 17.0041 14.9998 16.2133 14.9998H7.61034C6.81949 14.9998 6.17651 14.378 6.17651 13.6133V6.6805ZM13.4308 8.98781C13.3299 8.84483 13.1642 8.76033 12.9872 8.76033C12.8102 8.76033 12.6422 8.84483 12.5436 8.98781L10.5945 11.7523L10.0008 11.0351C9.89773 10.9117 9.74315 10.8402 9.58184 10.8402C9.42054 10.8402 9.26371 10.9117 9.1629 11.0351L7.72908 12.7683C7.59914 12.9243 7.57449 13.1388 7.66411 13.3186C7.75372 13.4984 7.94191 13.6133 8.14802 13.6133H15.6756C15.875 13.6133 16.0587 13.5071 16.1505 13.336C16.2424 13.1648 16.2312 12.959 16.1192 12.8008L13.4308 8.98781ZM8.6857 8.76033C8.97091 8.76033 9.24443 8.65077 9.4461 8.45575C9.64778 8.26073 9.76107 7.99622 9.76107 7.72042C9.76107 7.44461 9.64778 7.18011 9.4461 6.98508C9.24443 6.79006 8.97091 6.6805 8.6857 6.6805C8.4005 6.6805 8.12698 6.79006 7.92531 6.98508C7.72363 7.18011 7.61034 7.44461 7.61034 7.72042C7.61034 7.99622 7.72363 8.26073 7.92531 8.45575C8.12698 8.65077 8.4005 8.76033 8.6857 8.76033Z" fill="#135384"/>
<path d="M0 0.756302C0 0.339154 0.34622 0 0.772059 0H5.40441C5.83025 0 6.17647 0.339154 6.17647 0.756302V4.53782C6.17647 4.95496 5.83025 5.29412 5.40441 5.29412H0.772059C0.34622 5.29412 0 4.95496 0 4.53782V0.756302ZM3.90613 2.01484C3.85185 1.93684 3.76258 1.89076 3.66728 1.89076C3.57198 1.89076 3.4815 1.93684 3.42842 2.01484L2.37891 3.52272L2.05923 3.13156C2.00373 3.06421 1.9205 3.02521 1.83364 3.02521C1.74678 3.02521 1.66234 3.06421 1.60805 3.13156L0.835995 4.07694C0.766027 4.16203 0.752757 4.27902 0.801011 4.3771C0.849265 4.47518 0.950597 4.53782 1.06158 4.53782H5.11489C5.22225 4.53782 5.32117 4.47991 5.37063 4.38655C5.42009 4.2932 5.41406 4.18093 5.35374 4.09467L3.90613 2.01484ZM1.3511 1.89076C1.50467 1.89076 1.65196 1.831 1.76055 1.72462C1.86914 1.61824 1.93015 1.47397 1.93015 1.32353C1.93015 1.17309 1.86914 1.02882 1.76055 0.922439C1.65196 0.816064 1.50467 0.756302 1.3511 0.756302C1.19753 0.756302 1.05025 0.816064 0.941657 0.922439C0.833065 1.02882 0.772059 1.17309 0.772059 1.32353C0.772059 1.47397 0.833065 1.61824 0.941657 1.72462C1.05025 1.831 1.19753 1.89076 1.3511 1.89076Z" fill="#135384"/>
<line x1="0.878758" y1="5.02144" x2="6.38937" y2="13.9871" stroke="#135384" stroke-width="0.5"/>
<line x1="5.39895" y1="0.655823" x2="16.8695" y2="5.94994" stroke="#135384" stroke-width="0.5"/>
</svg>
