<svg width="22" height="22" viewBox="0 0 22 22" fill="none" xmlns="http://www.w3.org/2000/svg">
<rect x="0.5" y="0.5" width="18" height="19" rx="4.5" fill="white" stroke="#166299"/>
<rect x="4" y="3" width="17" height="18" rx="4" fill="white" stroke="#166299" stroke-width="2"/>
<path d="M13.4497 10.0957L13.931 7.38672C13.9706 7.16406 14.1768 7 14.4185 7C14.5748 7 14.7206 7.06836 14.8144 7.18555L15.1665 7.625H16.2519C16.5165 7.625 16.7707 7.72461 16.9582 7.90039L17.3332 8.25H18.5C18.7771 8.25 19 8.45898 19 8.71875V9.1875C19 10.0508 18.2541 10.75 17.3332 10.75H15.8894L15.7832 11.3457L13.4497 10.0957ZM15.6665 12.002V16.375C15.6665 16.7207 15.3686 17 14.9998 17H14.3331C13.9643 17 13.6664 16.7207 13.6664 16.375V14.125C13.1664 14.3652 12.5997 14.5 11.9996 14.5C11.3996 14.5 10.8329 14.3652 10.3329 14.125V16.375C10.3329 16.7207 10.0349 17 9.66618 17H8.99947C8.6307 17 8.33277 16.7207 8.33277 16.375V11.8789C7.73274 11.666 7.26188 11.1895 7.09937 10.5801L7.0202 10.2773C6.93061 9.94336 7.14729 9.60352 7.50564 9.51953C7.864 9.43555 8.22443 9.63867 8.31402 9.97461L8.39527 10.2773C8.4682 10.5547 8.73488 10.75 9.04114 10.75H13.3289L15.6665 12.002ZM16.6665 8.5625C16.6665 8.47962 16.6314 8.40013 16.5689 8.34153C16.5064 8.28292 16.4216 8.25 16.3332 8.25C16.2448 8.25 16.16 8.28292 16.0975 8.34153C16.035 8.40013 15.9998 8.47962 15.9998 8.5625C15.9998 8.64538 16.035 8.72487 16.0975 8.78347C16.16 8.84208 16.2448 8.875 16.3332 8.875C16.4216 8.875 16.5064 8.84208 16.5689 8.78347C16.6314 8.72487 16.6665 8.64538 16.6665 8.5625Z" fill="#166299"/>
</svg>
