<?xml version="1.0" encoding="UTF-8" standalone="no"?>
<svg
   width="18"
   height="18"
   viewBox="0 0 18 18"
   fill="none"
   version="1.1"
   id="svg2"
   sodipodi:docname="ic_task_image_classification_offline.svg"
   inkscape:version="1.4.2 (ebf0e940d0, 2025-05-08)"
   xmlns:inkscape="http://www.inkscape.org/namespaces/inkscape"
   xmlns:sodipodi="http://sodipodi.sourceforge.net/DTD/sodipodi-0.dtd"
   xmlns="http://www.w3.org/2000/svg"
   xmlns:svg="http://www.w3.org/2000/svg">
  <defs
     id="defs2" />
  <sodipodi:namedview
     id="namedview2"
     pagecolor="#505050"
     bordercolor="#ffffff"
     borderopacity="1"
     inkscape:showpageshadow="0"
     inkscape:pageopacity="0"
     inkscape:pagecheckerboard="1"
     inkscape:deskcolor="#d1d1d1"
     inkscape:zoom="33.116168"
     inkscape:cx="6.1903298"
     inkscape:cy="10.795331"
     inkscape:window-width="1920"
     inkscape:window-height="1052"
     inkscape:window-x="0"
     inkscape:window-y="0"
     inkscape:window-maximized="1"
     inkscape:current-layer="svg2" />
  <g
     id="rect1"
     style="opacity:1;fill:#135384;fill-opacity:1">
    <path
       id="path6"
       style="baseline-shift:baseline;display:inline;overflow:visible;vector-effect:none;fill:#135384;enable-background:accumulate;stop-color:#000000;stop-opacity:1;fill-opacity:1"
       d="M 5 1 C 2.7753514 1 1 2.7753514 1 5 L 1 11.363281 C 1 12.896839 1.8445168 14.216385 3.0976562 14.888672 C 2.845373 14.309278 2.7050781 13.671041 2.7050781 13 L 2.7050781 6.6367188 C 2.7050781 4.0181917 4.836551 1.8867187 7.4550781 1.8867188 L 13 1.8867188 C 13.023334 1.8867188 13.047058 1.8863814 13.070312 1.8867188 C 12.38396 1.3307663 11.506359 1 10.544922 1 L 5 1 z M 7.4550781 3.3867188 C 5.6416052 3.3867186 4.2050781 4.8232459 4.2050781 6.6367188 L 4.2050781 13 C 4.2050781 14.813473 5.6416052 16.25 7.4550781 16.25 L 13 16.25 C 14.813473 16.25 16.25 14.813473 16.25 13 L 16.25 6.6367188 C 16.25 4.8232457 14.813473 3.3867187 13 3.3867188 L 7.4550781 3.3867188 z M 11.759766 5.7285156 C 11.771875 5.727488 11.784512 5.7285156 11.796875 5.7285156 C 11.924675 5.7285156 12.044394 5.7830262 12.121094 5.8789062 L 12.408203 6.2382812 L 13.296875 6.2382812 C 13.513375 6.2382812 13.7216 6.3210238 13.875 6.4648438 L 14.181641 6.75 L 15.136719 6.75 C 15.363419 6.75 15.544922 6.9222256 15.544922 7.1347656 L 15.544922 7.5175781 C 15.544922 8.2238981 14.935041 8.7949219 14.181641 8.7949219 L 13 8.7949219 L 12.914062 9.2832031 L 11.003906 8.2597656 L 11.398438 6.0449219 C 11.428813 5.8741281 11.578131 5.7439297 11.759766 5.7285156 z M 13.363281 6.75 C 13.290981 6.75 13.221022 6.7762688 13.169922 6.8242188 C 13.118722 6.8721688 13.089844 6.9380494 13.089844 7.0058594 C 13.089844 7.0736694 13.118722 7.13955 13.169922 7.1875 C 13.221022 7.23545 13.290981 7.2617188 13.363281 7.2617188 C 13.435681 7.2617188 13.505541 7.23545 13.556641 7.1875 C 13.607841 7.13955 13.636719 7.0736694 13.636719 7.0058594 C 13.636719 6.9380494 13.607841 6.8721688 13.556641 6.8242188 C 13.505541 6.7762687 13.435681 6.75 13.363281 6.75 z M 6.25 7.7734375 C 6.5038689 7.7629748 6.7385969 7.9216069 6.8027344 8.1621094 L 6.8691406 8.4082031 C 6.9288106 8.6351231 7.1459044 8.7949219 7.3964844 8.7949219 L 10.90625 8.7949219 L 12.818359 9.8203125 L 12.818359 13.398438 C 12.818359 13.681237 12.575137 13.910156 12.273438 13.910156 L 11.726562 13.910156 C 11.424862 13.910156 11.181641 13.681237 11.181641 13.398438 L 11.181641 11.556641 C 10.772541 11.753141 10.309259 11.863281 9.8183594 11.863281 C 9.3274294 11.863281 8.8641981 11.753141 8.4550781 11.556641 L 8.4550781 13.398438 C 8.4550781 13.681237 8.2099231 13.910156 7.9082031 13.910156 L 7.3632812 13.910156 C 7.0615613 13.910156 6.8183594 13.681237 6.8183594 13.398438 L 6.8183594 9.71875 C 6.3274294 9.54457 5.9415537 9.15483 5.8085938 8.65625 L 5.7441406 8.4082031 C 5.6708406 8.1349431 5.847435 7.8577825 6.140625 7.7890625 C 6.177275 7.7804737 6.213733 7.7749322 6.25 7.7734375 z " />
  </g>
  <g
     id="rect2"
     style="opacity:1" />
</svg>
