<svg width="21" height="21" viewBox="0 0 21 21" fill="none" xmlns="http://www.w3.org/2000/svg">
<path d="M11.8116 7.875H12.5131C13.4196 9.4459 15.1178 10.5 17.0621 10.5C17.5133 10.5 17.9564 10.4426 18.3748 10.3359V19.6875C18.3748 20.4135 17.7882 21 17.0621 21C16.3361 21 15.7495 20.4135 15.7495 19.6875V13.9125L10.1708 18.375H12.4679C13.194 18.375 13.7806 18.9615 13.7806 19.6875C13.7806 20.4135 13.194 21 12.4679 21H6.56112C4.38709 21 2.62325 19.2363 2.62325 17.0625V7.89551C2.62325 7.23516 2.13101 6.67324 1.4747 6.59121L1.15065 6.5502C0.432804 6.45996 -0.0799405 5.80371 0.0103025 5.08594C0.100546 4.36816 0.756858 3.85547 1.4747 3.9457L1.79875 3.98672C3.76769 4.23281 5.2485 5.90625 5.2485 7.89551V11.3941C6.65957 9.27363 9.07152 7.875 11.8116 7.875ZM18.3748 8.96191C17.9646 9.10547 17.5215 9.1875 17.0621 9.1875C15.8972 9.1875 14.8471 8.67891 14.1251 7.875C13.9734 7.70684 13.838 7.52637 13.719 7.33359C13.3417 6.72656 13.1242 6.01289 13.1242 5.25V0.438867C13.1242 0.196875 13.317 0.00410156 13.5591 0H13.5673C13.7026 0 13.8298 0.065625 13.9118 0.172266V0.176367L14.4369 0.873633L15.5526 2.3625L15.7495 2.625H18.3748L18.5716 2.3625L19.6874 0.873633L20.2124 0.176367V0.172266C20.2945 0.065625 20.4216 0 20.557 0H20.5652C20.8072 0.00410156 21 0.196875 21 0.438867V5.25C21 5.95957 20.8113 6.62813 20.4832 7.20234C20.0196 8.01445 19.269 8.64609 18.3748 8.96191ZM16.4058 5.25C16.4058 5.07595 16.3367 4.90903 16.2136 4.78596C16.0905 4.66289 15.9236 4.59375 15.7495 4.59375C15.5754 4.59375 15.4085 4.66289 15.2854 4.78596C15.1623 4.90903 15.0932 5.07595 15.0932 5.25C15.0932 5.42405 15.1623 5.59097 15.2854 5.71404C15.4085 5.83711 15.5754 5.90625 15.7495 5.90625C15.9236 5.90625 16.0905 5.83711 16.2136 5.71404C16.3367 5.59097 16.4058 5.42405 16.4058 5.25ZM18.3748 5.90625C18.5488 5.90625 18.7157 5.83711 18.8388 5.71404C18.9619 5.59097 19.0311 5.42405 19.0311 5.25C19.0311 5.07595 18.9619 4.90903 18.8388 4.78596C18.7157 4.66289 18.5488 4.59375 18.3748 4.59375C18.2007 4.59375 18.0337 4.66289 17.9107 4.78596C17.7876 4.90903 17.7184 5.07595 17.7184 5.25C17.7184 5.42405 17.7876 5.59097 17.9107 5.71404C18.0337 5.83711 18.2007 5.90625 18.3748 5.90625Z" fill="white"/>
</svg>
