<svg width="20" height="20" viewBox="0 0 20 20" fill="none" xmlns="http://www.w3.org/2000/svg">
<path d="M7.42153 0.9042C7.19621 0.926793 6.98675 1.04042 6.83425 1.22279C6.68174 1.40517 6.59719 1.64313 6.59718 1.89V4.8C6.59718 4.91935 6.55372 5.03381 6.47637 5.1182C6.39902 5.20259 6.29412 5.25 6.18473 5.25C5.39117 5.25 4.83354 5.6028 4.42108 6.1428C3.99653 6.6996 3.71992 7.4664 3.54669 8.277C3.37456 9.0828 3.31186 9.8946 3.29317 10.5102C3.28692 10.7067 3.28472 10.9034 3.28657 11.1H7.14711V10.65C7.14711 10.2921 7.01683 9.94878 6.7849 9.69562C6.55297 9.44246 6.23838 9.30016 5.91031 9.3H5.22289C5.1135 9.3 5.00859 9.25259 4.93124 9.1682C4.85389 9.08381 4.81044 8.96935 4.81044 8.85C4.81044 8.73065 4.85389 8.61619 4.93124 8.5318C5.00859 8.44741 5.1135 8.4 5.22289 8.4H5.91031C6.18106 8.40008 6.44914 8.45834 6.69925 8.57146C6.94936 8.68457 7.1766 8.85033 7.368 9.05926C7.55939 9.26819 7.71119 9.51621 7.81474 9.78915C7.91828 10.0621 7.97154 10.3546 7.97147 10.65V11.1H8.38392C8.49331 11.1 8.59822 11.0526 8.67557 10.9682C8.75292 10.8838 8.79637 10.7693 8.79637 10.65V4.65C8.79637 4.53086 8.83967 4.41658 8.91679 4.33223C8.9939 4.24787 9.09852 4.20032 9.20772 4.2H9.48599C9.6085 4.19998 9.72877 4.16424 9.83437 4.09649C9.93997 4.02873 10.0271 3.93141 10.0866 3.81461C10.1462 3.69781 10.176 3.56576 10.1731 3.43214C10.1702 3.29852 10.1346 3.16818 10.07 3.0546L9.72906 2.4546C9.66745 2.34626 9.58154 2.25684 9.47944 2.19479C9.37735 2.13274 9.26244 2.10012 9.14558 2.1H7.83343C7.72404 2.1 7.61914 2.05259 7.54179 1.9682C7.46444 1.88381 7.42098 1.76935 7.42098 1.65L7.42153 0.9042ZM2.46221 11.1C2.46056 10.9296 2.46166 10.7196 2.46881 10.4802C2.48861 9.8304 2.55515 8.955 2.74378 8.073C2.93076 7.1958 3.24697 6.2754 3.78811 5.5668C4.26765 4.9386 4.91822 4.4862 5.77337 4.3758V1.89C5.77337 1.38916 5.95558 0.908791 6.27997 0.554416C6.60437 0.200041 7.04442 0.000635992 7.50347 0C7.91372 0 8.24588 0.3624 8.24588 0.81V1.2H9.14558C9.66802 1.2 10.1542 1.4952 10.4297 1.98L10.7706 2.58C11.3712 3.6378 10.7244 4.992 9.61962 5.094V10.65C9.61962 11.0077 9.48949 11.3508 9.25779 11.604C9.0261 11.8571 8.7118 11.9995 8.38392 12H2.08881C1.68174 12.0001 1.28352 11.8705 0.943108 11.627C0.6027 11.3834 0.334957 11.0366 0.17281 10.6293C0.0106639 10.2219 -0.0388139 9.77172 0.0304626 9.33408C0.0997392 8.89644 0.284749 8.49043 0.562736 8.166L1.18691 7.4358C1.48414 7.08803 1.64606 6.62799 1.63857 6.15256C1.63108 5.67712 1.45477 5.22342 1.14677 4.887L0.534689 4.218C0.461833 4.1327 0.42217 4.01987 0.424055 3.90329C0.425941 3.78671 0.469227 3.67547 0.544796 3.59303C0.620364 3.51058 0.722314 3.46335 0.829167 3.4613C0.93602 3.45924 1.03943 3.50251 1.11762 3.582L1.73025 4.2504C2.18965 4.75164 2.45273 5.42792 2.46401 6.13667C2.4753 6.84541 2.23391 7.53125 1.79074 8.0496L1.16601 8.7798C0.998322 8.97637 0.88684 9.22206 0.845235 9.48673C0.803629 9.75141 0.833708 10.0236 0.931785 10.2699C1.02986 10.5162 1.19167 10.7259 1.39739 10.8734C1.6031 11.0208 1.84377 11.0996 2.08991 11.1H2.46221Z" fill="white"/>
<path d="M8.93669 20H7.84852C7.2934 20.0002 6.75034 19.8165 6.28612 19.4715C5.82191 19.1265 5.45678 18.6353 5.23566 18.0581C5.01454 17.481 4.94707 16.8433 5.04154 16.2233C5.13601 15.6033 5.38831 15.0281 5.76741 14.5685L6.6186 13.534C7.02392 13.0414 7.24473 12.3896 7.23452 11.7161C7.22431 11.0426 6.98387 10.3998 6.56385 9.92325L5.72841 8.9755C5.62905 8.85465 5.57497 8.69481 5.57754 8.52966C5.58011 8.3645 5.63914 8.20692 5.74219 8.09012C5.84524 7.97332 5.98427 7.90642 6.12999 7.9035C6.2757 7.90059 6.41673 7.96189 6.52335 8.0745L7.3588 9.0214C7.98529 9.73149 8.34405 10.6896 8.35944 11.6936C8.37483 12.6977 8.04565 13.6693 7.44129 14.4036L6.58935 15.4381C6.36067 15.7165 6.20864 16.0646 6.1519 16.4395C6.09516 16.8145 6.13618 17.2001 6.26993 17.549C6.40368 17.8979 6.62434 18.195 6.90487 18.4039C7.1854 18.6128 7.51361 18.7244 7.84926 18.725H8.35698C8.35473 18.4828 8.35623 18.1861 8.36598 17.8469C8.39298 16.9264 8.48372 15.6863 8.74096 14.4368C8.99594 13.194 9.42716 11.8902 10.1651 10.8863C10.8191 9.99635 11.7063 9.35545 12.8724 9.19905V5.6775C12.8724 4.96797 13.1209 4.28745 13.5633 3.78542C14.0057 3.28339 14.6058 3.0009 15.2318 3C15.7912 3 16.2442 3.5134 16.2442 4.1475V4.7H17.4711C18.1836 4.7 18.8465 5.1182 19.2222 5.805L19.6872 6.655C20.5062 8.15355 19.6242 10.072 18.1176 10.2165V18.0875C18.1176 18.5943 17.9401 19.0804 17.6241 19.4389C17.3082 19.7975 16.8796 19.9993 16.4324 20H15.87V18.0875C15.8701 17.669 15.7974 17.2546 15.6562 16.868C15.515 16.4813 15.308 16.1299 15.047 15.834C14.786 15.538 14.4761 15.3031 14.135 15.1429C13.794 14.9826 13.4284 14.9001 13.0592 14.9H12.1217C11.9726 14.9 11.8295 14.9672 11.724 15.0867C11.6185 15.2063 11.5593 15.3684 11.5593 15.5375C11.5593 15.7066 11.6185 15.8687 11.724 15.9883C11.8295 16.1078 11.9726 16.175 12.1217 16.175H13.0592C13.5066 16.1752 13.9356 16.3768 14.2518 16.7355C14.5681 17.0941 14.7458 17.5804 14.7458 18.0875V20H8.93669Z" fill="white"/>
</svg>
