<svg width="19" height="20" viewBox="0 0 19 20" fill="none" xmlns="http://www.w3.org/2000/svg">
<path d="M14.5455 5H1.45455C0.654545 5 0 5.675 0 6.5V15.5C0 16.325 0.654545 17 1.45455 17H6.54545L5.09091 19.25V20H10.9091V19.25L9.45455 17H14.5455C15.3455 17 16 16.325 16 15.5V6.5C16 5.675 15.3455 5 14.5455 5ZM14.5455 14H1.45455V6.5H14.5455V14Z" fill="white"/>
<path fill-rule="evenodd" clip-rule="evenodd" d="M17.5 0C17.8978 0 18.2794 0.151696 18.5607 0.421716C18.842 0.691736 19 1.05796 19 1.43983V6.23925C19 6.62112 18.842 6.98734 18.5607 7.25736C18.2794 7.52738 17.8978 7.67908 17.5 7.67908H11.6665L10 8.87894C9.588 9.17554 9 8.89334 9 8.39899V1.43983C9 1.05796 9.15804 0.691736 9.43934 0.421716C9.72064 0.151696 10.1022 0 10.5 0H17.5ZM13.5 4.31948H12C11.8674 4.31948 11.7402 4.37005 11.6464 4.46005C11.5527 4.55006 11.5 4.67214 11.5 4.79943C11.5 4.92671 11.5527 5.04879 11.6464 5.1388C11.7402 5.2288 11.8674 5.27937 12 5.27937H13.5C13.6326 5.27937 13.7598 5.2288 13.8536 5.1388C13.9473 5.04879 14 4.92671 14 4.79943C14 4.67214 13.9473 4.55006 13.8536 4.46005C13.7598 4.37005 13.6326 4.31948 13.5 4.31948ZM16 2.39971H12C11.8726 2.39985 11.75 2.44669 11.6573 2.53066C11.5646 2.61464 11.5089 2.72941 11.5014 2.85153C11.4939 2.97365 11.5353 3.09389 11.6171 3.1877C11.6989 3.2815 11.815 3.34179 11.9415 3.35624L12 3.3596H16C16.1274 3.35946 16.25 3.31262 16.3427 3.22865C16.4354 3.14467 16.4911 3.0299 16.4986 2.90778C16.5061 2.78566 16.4647 2.66542 16.3829 2.57161C16.3011 2.47781 16.185 2.41752 16.0585 2.40307L16 2.39971Z" fill="white"/>
</svg>
