<svg width="1000" height="1024" viewBox="0 0 1000 1024" fill="none" xmlns="http://www.w3.org/2000/svg">
<g clip-path="url(#clip0_2_2)">
<path d="M953.125 699H546.875C520.986 699 500 678.014 500 652.125V370.875C500 344.986 520.986 324 546.875 324H953.125C979.014 324 1000 344.986 1000 370.875V652.125C1000 678.014 979.014 699 953.125 699ZM609.375 378.688C579.172 378.688 554.688 403.172 554.688 433.375C554.688 463.578 579.172 488.063 609.375 488.063C639.578 488.063 664.062 463.578 664.062 433.375C664.062 403.172 639.578 378.688 609.375 378.688ZM562.5 636.5H937.5V527.125L852.036 441.661C847.46 437.085 840.04 437.085 835.463 441.661L703.125 574L648.911 519.786C644.335 515.21 636.915 515.21 632.338 519.786L562.5 589.625V636.5Z" fill="#26507D"/>
<path d="M233.333 345.333H100C91.1594 345.333 82.6809 348.845 76.4297 355.096C70.1785 361.348 66.6666 369.826 66.6666 378.667V645.333C66.6666 654.174 70.1785 662.652 76.4297 668.904C82.6809 675.155 91.1594 678.667 100 678.667H300C308.841 678.667 317.319 675.155 323.57 668.904C329.821 662.652 333.333 654.174 333.333 645.333V445.333M233.333 345.333L333.333 445.333M233.333 345.333V445.333H333.333M266.667 528.667H133.333M266.667 595.333H133.333M166.667 462H133.333" stroke="#26507D" stroke-width="20" stroke-linecap="round" stroke-linejoin="round"/>
<path d="M372 512H428M428 512L400 484M428 512L400 540" stroke="#26507D" stroke-width="20" stroke-linecap="round" stroke-linejoin="round"/>
</g>
<defs>
<clipPath id="clip0_2_2">
<rect width="1000" height="1024" fill="white"/>
</clipPath>
</defs>
</svg>
