<svg width="19" height="20" viewBox="0 0 19 20" fill="none" xmlns="http://www.w3.org/2000/svg">
<path d="M1.9 20C1.3775 20 0.930051 19.804 0.557651 19.412C0.185251 19.02 -0.00063172 18.5493 1.6129e-06 18V14H1.9V18H5.7V20H1.9ZM1.6129e-06 6V2C1.6129e-06 1.45 0.186202 0.979001 0.558601 0.587001C0.931001 0.195002 1.37813 -0.000664969 1.9 1.69779e-06H5.7V2H1.9V6H1.6129e-06ZM13.3 20V18H17.1V14H19V18C19 18.55 18.8138 19.021 18.4414 19.413C18.069 19.805 17.6219 20.0007 17.1 20H13.3ZM17.1 6V2H13.3V1.69779e-06H17.1C17.6225 1.69779e-06 18.0699 0.196002 18.4423 0.588002C18.8147 0.980002 19.0006 1.45067 19 2V6H17.1Z" fill="white"/>
<path d="M9.98718 7.71484L10.5086 4.46406C10.5514 4.19687 10.7749 4 11.0367 4C11.206 4 11.364 4.08203 11.4656 4.22266L11.847 4.75H13.0229C13.3096 4.75 13.5849 4.86953 13.7881 5.08047L14.1943 5.5H15.4583C15.7585 5.5 16 5.75078 16 6.0625V6.625C16 7.66094 15.192 8.5 14.1943 8.5H12.6302L12.5151 9.21484L9.98718 7.71484ZM12.3887 10.0023V15.25C12.3887 15.6648 12.0659 16 11.6664 16H10.9442C10.5447 16 10.2219 15.6648 10.2219 15.25V12.55C9.68022 12.8383 9.0663 13 8.41627 13C7.76623 13 7.15231 12.8383 6.61062 12.55V15.25C6.61062 15.6648 6.28786 16 5.88836 16H5.1661C4.7666 16 4.44384 15.6648 4.44384 15.25V9.85469C3.7938 9.59922 3.28371 9.02734 3.10765 8.29609L3.02189 7.93281C2.92483 7.53203 3.15957 7.12422 3.54778 7.02344C3.936 6.92266 4.32647 7.16641 4.42352 7.56953L4.51155 7.93281C4.59054 8.26563 4.87945 8.5 5.21124 8.5H9.85627L12.3887 10.0023ZM13.4721 5.875C13.4721 5.77554 13.434 5.68016 13.3663 5.60984C13.2986 5.53951 13.2067 5.5 13.111 5.5C13.0152 5.5 12.9233 5.53951 12.8556 5.60984C12.7879 5.68016 12.7498 5.77554 12.7498 5.875C12.7498 5.97446 12.7879 6.06984 12.8556 6.14016C12.9233 6.21049 13.0152 6.25 13.111 6.25C13.2067 6.25 13.2986 6.21049 13.3663 6.14016C13.434 6.06984 13.4721 5.97446 13.4721 5.875Z" fill="white"/>
</svg>
