<svg width="15" height="15" viewBox="0 0 15 15" fill="none" xmlns="http://www.w3.org/2000/svg">
<path d="M1.425 15C1.03313 15 0.697538 14.853 0.418239 14.559C0.138939 14.265 -0.00047379 13.912 1.20968e-06 13.5V10.5H1.425V13.5H4.275V15H1.425ZM1.20968e-06 4.5V1.5C1.20968e-06 1.0875 0.139651 0.734251 0.418951 0.440251C0.698251 0.146251 1.0336 -0.000498727 1.425 1.27335e-06H4.275V1.5H1.425V4.5H1.20968e-06ZM9.975 15V13.5H12.825V10.5H14.25V13.5C14.25 13.9125 14.1103 14.2657 13.831 14.5597C13.5517 14.8537 13.2164 15.0005 12.825 15H9.975ZM12.825 4.5V1.5H9.975V1.27335e-06H12.825C13.2169 1.27335e-06 13.5525 0.147001 13.8318 0.441001C14.1111 0.735001 14.2505 1.088 14.25 1.5V4.5H12.825Z" fill="#135384"/>
<path d="M7.49043 5.78677L7.88147 3.34869C7.91363 3.1483 8.08122 3.00064 8.27758 3.00064C8.40454 3.00064 8.52304 3.06216 8.59922 3.16763L8.8853 3.56314H9.76725C9.98223 3.56314 10.1888 3.65279 10.3411 3.81099L10.6458 4.12564H11.5938C11.8189 4.12564 12 4.31373 12 4.54752V4.96939C12 5.74634 11.394 6.37564 10.6458 6.37564H9.4727L9.38637 6.91177L7.49043 5.78677ZM9.29157 7.5024V11.4381C9.29157 11.7493 9.0495 12.0006 8.74987 12.0006H8.20818C7.90855 12.0006 7.66648 11.7493 7.66648 11.4381V9.41314C7.26021 9.62935 6.79977 9.75064 6.31225 9.75064C5.82472 9.75064 5.36428 9.62935 4.95801 9.41314V11.4381C4.95801 11.7493 4.71594 12.0006 4.41631 12.0006H3.87462C3.57499 12.0006 3.33292 11.7493 3.33292 11.4381V7.39166C2.8454 7.20006 2.46282 6.77115 2.33079 6.22271L2.26646 5.95025C2.19367 5.64966 2.36972 5.3438 2.66088 5.26822C2.95204 5.19263 3.2449 5.37545 3.31769 5.67779L3.38371 5.95025C3.44295 6.19986 3.65963 6.37564 3.90847 6.37564H7.39225L9.29157 7.5024ZM10.1041 4.40689C10.1041 4.3323 10.0756 4.26076 10.0248 4.20802C9.97399 4.15527 9.9051 4.12564 9.83326 4.12564C9.76143 4.12564 9.69254 4.15527 9.64175 4.20802C9.59095 4.26076 9.56242 4.3323 9.56242 4.40689C9.56242 4.48148 9.59095 4.55302 9.64175 4.60576C9.69254 4.65851 9.76143 4.68814 9.83326 4.68814C9.9051 4.68814 9.97399 4.65851 10.0248 4.60576C10.0756 4.55302 10.1041 4.48148 10.1041 4.40689Z" fill="#135384"/>
</svg>
