<svg id="vector" xmlns="http://www.w3.org/2000/svg" width="18" height="28" viewBox="0 0 18 28"><path fill="#135384" d="M14.6343,12.2292C15.0507,11.6374 15.0946,10.5853 14.9411,9.7963C14.8973,9.5771 14.8316,9.336 14.722,9.0511C14.5685,8.5689 14.5466,7.9771 14.5247,7.3634L11.3247,6.3114C10.9959,6.5963 10.0316,6.7716 9.5932,7.1442C8.0809,8.3935 7.0946,10.0812 6.6781,11.0894C6.1302,12.3826 5.1877,15.1004 5.0781,16.8977C5.0343,17.4018 5.0124,17.9278 4.9905,18.0374C4.9028,18.3442 4.7055,18.4757 4.3987,18.4757C4.0918,18.4538 3.8288,18.2785 3.785,18.1251C3.7192,17.7744 3.6535,14.7059 3.6096,11.9661C3.6316,10.7388 3.1055,8.4155 0.8042,8.284C0.4973,8.262 0.2343,8.5031 0.2343,8.7881C0.2124,9.0949 0.4535,9.3579 0.7384,9.3579C2.5357,9.4675 2.5138,11.8346 2.5138,11.9223V11.9442C2.5357,12.9086 2.6014,17.7086 2.711,18.3004C2.8425,18.9798 3.522,19.5059 4.3548,19.5497C4.4206,19.5497 4.4864,19.5497 4.5521,19.5497C4.574,19.5497 4.5959,19.5497 4.5959,19.5497L11.8946,19.6593L11.2151,12.9963C11.1932,12.6894 11.4124,12.4264 11.6973,12.4045C12.0042,12.3826 12.2672,12.6018 12.2891,12.8867L12.9905,19.6812L14.4809,19.7251C14.7,19.7251 14.8973,19.5935 14.985,19.3963C15.0727,19.199 15.0288,18.9579 14.8754,18.8045L13.9987,18.0155C14.0644,15.5826 14.3713,12.9525 14.459,12.4922C14.5028,12.4045 14.5685,12.3168 14.6343,12.2292Z" id="path_0"/><path fill="#135384" d="M17.6369,3.9004C17.5931,3.747 17.9219,3.1333 15.9054,1.8401L14.6342,0.3935C14.4808,0.2182 14.2177,0.1305 13.9986,0.2401C13.7794,0.3497 13.6698,0.547 13.7355,0.7881C13.7355,0.81 13.7575,1.2264 13.1876,1.7744C12.2013,2.6949 12.004,3.6593 11.8287,4.4264C11.7629,4.7771 12.004,5.1716 11.8945,5.4346L14.8095,6.3771C14.941,6.0703 16.804,5.9607 17.5492,5.7415C17.7246,5.6977 17.8561,5.5442 17.8999,5.3689C17.9876,5.1059 17.7465,4.3826 17.6369,3.9004Z" id="path_1"/><path fill="#135384" d="M4.4303,27.2164C3.9919,27.2164 3.5974,27.1222 3.2467,26.9337C2.9004,26.7408 2.6264,26.4669 2.4248,26.1118C2.2275,25.7523 2.1289,25.3337 2.1289,24.8559C2.1289,24.3781 2.2275,23.9616 2.4248,23.6066C2.6264,23.2471 2.9004,22.9732 3.2467,22.7847C3.5974,22.5918 3.9919,22.4953 4.4303,22.4953C4.7284,22.4953 4.9936,22.5304 5.2259,22.6006C5.4626,22.6707 5.6971,22.7715 5.9295,22.903C6.0259,22.9556 6.0741,23.0389 6.0741,23.1529C6.0741,23.2186 6.05,23.2778 6.0018,23.3304C5.9536,23.3786 5.89,23.4027 5.8111,23.4027C5.7673,23.4027 5.7278,23.394 5.6927,23.3764C5.4999,23.2756 5.3114,23.1989 5.1273,23.1463C4.9432,23.0937 4.7305,23.0674 4.4894,23.0674C4.1125,23.0674 3.7903,23.1463 3.5229,23.3041C3.2599,23.4575 3.0604,23.6701 2.9245,23.9419C2.793,24.2093 2.7273,24.514 2.7273,24.8559C2.7273,25.1978 2.793,25.5047 2.9245,25.7764C3.0604,26.0438 3.2599,26.2564 3.5229,26.4142C3.7903,26.5677 4.1125,26.6444 4.4894,26.6444C4.7305,26.6444 4.9432,26.6181 5.1273,26.5655C5.3114,26.5129 5.4999,26.4362 5.6927,26.3353C5.7278,26.3178 5.7673,26.309 5.8111,26.309C5.89,26.309 5.9536,26.3332 6.0018,26.3814C6.05,26.4296 6.0741,26.4888 6.0741,26.5589C6.0741,26.6729 6.0259,26.7562 5.9295,26.8088C5.6971,26.9403 5.4626,27.0411 5.2259,27.1112C4.9936,27.1814 4.7284,27.2164 4.4303,27.2164Z" id="path_2"/><path fill="#135384" d="M6.9638,27.1836C6.8762,27.1836 6.8038,27.1551 6.7469,27.0981C6.6943,27.0411 6.668,26.971 6.668,26.8877C6.668,26.8526 6.6789,26.8088 6.7008,26.7562L8.3775,22.7978C8.4126,22.7189 8.4608,22.6553 8.5222,22.6071C8.5879,22.5545 8.6669,22.5282 8.7589,22.5282H8.8247C8.9167,22.5282 8.9934,22.5545 9.0548,22.6071C9.1206,22.6553 9.171,22.7189 9.206,22.7978L10.8827,26.7562C10.9047,26.8088 10.9156,26.8526 10.9156,26.8877C10.9156,26.971 10.8871,27.0411 10.8301,27.0981C10.7775,27.1551 10.7074,27.1836 10.6197,27.1836C10.5584,27.1836 10.5014,27.1682 10.4488,27.1375C10.4006,27.1025 10.3633,27.0564 10.337,26.9995L9.9096,25.9737H7.674L7.2466,26.9995C7.2203,27.0564 7.1808,27.1025 7.1282,27.1375C7.08,27.1682 7.0252,27.1836 6.9638,27.1836ZM7.9041,25.4279H9.6795L8.7918,23.291L7.9041,25.4279Z" id="path_3"/><path fill="#135384" d="M12.8394,27.1836C12.7561,27.1836 12.6859,27.1551 12.629,27.0981C12.572,27.0411 12.5435,26.971 12.5435,26.8877V23.12H11.2021C11.1232,23.12 11.0575,23.0937 11.0049,23.0411C10.9522,22.9885 10.9259,22.9227 10.9259,22.8438C10.9259,22.7649 10.9522,22.6992 11.0049,22.6466C11.0575,22.5896 11.1232,22.5611 11.2021,22.5611H14.4766C14.5555,22.5611 14.6213,22.5896 14.6739,22.6466C14.7309,22.6992 14.7594,22.7649 14.7594,22.8438C14.7594,22.9227 14.7309,22.9885 14.6739,23.0411C14.6213,23.0937 14.5555,23.12 14.4766,23.12H13.1418V26.8877C13.1418,26.971 13.1112,27.0411 13.0498,27.0981C12.9928,27.1551 12.9227,27.1836 12.8394,27.1836Z" id="path_4"/></svg>