<svg id="vector" xmlns="http://www.w3.org/2000/svg" width="146" height="146" viewBox="0 0 146 146"><path fill="#135384" d="M61.872,104H83.128L89.987,122.298C90.477,123.605 89.511,125 88.114,125H56.886C55.489,125 54.523,123.605 55.013,122.298L61.872,104Z" id="path_0"/><path fill="#135384" d="M71.154,20.077C71.154,13.959 76.113,9 82.231,9H127.923C134.041,9 139,13.959 139,20.077V39.461C139,45.579 134.041,50.539 127.923,50.539H105.769L86.385,63V50.539H82.231C76.113,50.539 71.154,45.579 71.154,39.461V20.077ZM83.615,17.308C82.851,17.308 82.231,17.928 82.231,18.692C82.231,19.457 82.851,20.077 83.615,20.077H122.385C123.149,20.077 123.769,19.457 123.769,18.692C123.769,17.928 123.149,17.308 122.385,17.308H83.615ZM91.923,28.385C91.923,27.62 92.543,27 93.308,27H126.538C127.303,27 127.923,27.62 127.923,28.385C127.923,29.149 127.303,29.769 126.538,29.769H93.308C92.543,29.769 91.923,29.149 91.923,28.385ZM85,38.077C84.235,38.077 83.615,38.697 83.615,39.461C83.615,40.226 84.235,40.846 85,40.846H123.769C124.534,40.846 125.154,40.226 125.154,39.461C125.154,38.697 124.534,38.077 123.769,38.077H85Z" fill-rule="evenodd" id="path_1"/><path fill="#135384" d="M67,27H25C20.582,27 17,30.582 17,35V93.669C17,98.088 20.582,101.669 25,101.669H120C124.418,101.669 128,98.088 128,93.669V54H120V86C120,87.105 119.105,88 118,88H27C25.895,88 25,87.105 25,86V37C25,35.895 25.895,35 27,35H67V27Z" fill-rule="evenodd" id="path_2"/></svg>